<svg xmlns="http://www.w3.org/2000/svg" xmlns:xlink="http://www.w3.org/1999/xlink" width="500" zoomAndPan="magnify" viewBox="0 0 375 374.999991" height="500" preserveAspectRatio="xMidYMid meet" version="1.0"><defs><g/><clipPath id="id1"><path d="M 79.371094 68.078125 L 289.042969 68.078125 L 289.042969 267.710938 L 79.371094 267.710938 Z M 79.371094 68.078125 " clip-rule="nonzero"/></clipPath><clipPath id="id2"><path d="M 120.363281 216.496094 L 281 216.496094 L 281 316.933594 L 120.363281 316.933594 Z M 120.363281 216.496094 " clip-rule="nonzero"/></clipPath></defs><path fill="#737373" d="M 226.914062 262.234375 C 226.898438 262.261719 226.882812 262.289062 226.867188 262.316406 C 232.191406 260.101562 237.332031 257.4375 242.21875 254.328125 C 241.574219 253.863281 241 253.289062 240.515625 252.613281 C 236.53125 255.113281 232.371094 257.328125 228.078125 259.242188 C 228.121094 260.492188 227.667969 261.488281 226.914062 262.234375 " fill-opacity="1" fill-rule="nonzero"/><path fill="#737373" d="M 264.910156 232.929688 C 264.90625 233.003906 264.902344 233.074219 264.890625 233.152344 C 264.816406 233.644531 264.816406 234.121094 264.863281 234.59375 C 265.496094 233.851562 266.121094 233.105469 266.730469 232.34375 C 266.410156 232.539062 266.070312 232.707031 265.710938 232.839844 C 265.417969 232.945312 265.148438 232.96875 264.910156 232.929688 " fill-opacity="1" fill-rule="nonzero"/><path fill="#737373" d="M 226.097656 267.996094 C 230.644531 265.714844 235.027344 263.085938 239.199219 260.117188 C 241.242188 258.65625 243.230469 257.125 245.15625 255.519531 C 244.242188 255.386719 243.382812 255.066406 242.613281 254.589844 C 237.226562 258.921875 231.398438 262.675781 225.246094 265.789062 C 225.652344 266.511719 225.957031 267.25 226.097656 267.996094 " fill-opacity="1" fill-rule="nonzero"/><g clip-path="url(#id1)"><path fill="#737373" d="M 136.429688 266.101562 C 131.851562 263.832031 127.4375 261.203125 123.242188 258.226562 C 107.039062 246.738281 94.449219 230.308594 87.652344 211.667969 C 80.574219 192.265625 79.789062 170.769531 85.433594 150.902344 C 87.84375 142.425781 91.414062 134.324219 95.976562 126.828125 C 95.847656 127.109375 95.710938 127.386719 95.585938 127.671875 C 86.90625 146.886719 84.484375 168.613281 88.644531 189.273438 C 92.695312 209.371094 103.058594 228.007812 117.902344 242.164062 C 126.609375 250.46875 136.785156 257.164062 147.804688 261.914062 C 148.382812 261.699219 148.96875 261.542969 149.5625 261.441406 C 147.6875 260.421875 145.839844 259.175781 144.660156 257.886719 C 139.746094 255.519531 135.015625 252.746094 130.535156 249.566406 C 114.332031 238.074219 101.742188 221.648438 94.945312 203.007812 C 87.867188 183.605469 87.082031 162.109375 92.726562 142.242188 C 96.019531 130.664062 101.472656 119.789062 108.664062 110.195312 C 111.441406 107.253906 114.398438 104.472656 117.527344 101.882812 C 133.09375 88.996094 152.597656 81.101562 172.765625 79.554688 C 193.324219 77.980469 214.089844 82.828125 231.730469 93.5 C 248.691406 103.761719 262.335938 119.09375 270.566406 137.09375 C 279.148438 155.867188 281.535156 177.332031 277.410156 197.546875 C 276.730469 200.867188 275.871094 204.144531 274.855469 207.371094 C 275.058594 207.882812 275.25 208.402344 275.417969 208.925781 C 275.667969 209.621094 275.914062 210.316406 276.128906 211.019531 C 282.917969 191.585938 283.527344 170.082031 277.898438 150.28125 C 272.3125 130.648438 260.648438 112.902344 244.851562 99.9375 C 228.832031 86.796875 208.988281 78.808594 188.304688 77.21875 C 167.367188 75.609375 146.117188 80.613281 128.15625 91.480469 C 126.292969 92.609375 124.472656 93.796875 122.691406 95.039062 C 123.394531 94.425781 124.101562 93.816406 124.820312 93.21875 C 140.386719 80.335938 159.886719 72.441406 180.058594 70.894531 C 200.617188 69.320312 221.382812 74.167969 239.023438 84.839844 C 255.984375 95.097656 269.628906 110.433594 277.859375 128.433594 C 286.441406 147.207031 288.828125 168.671875 284.703125 188.882812 C 283.019531 197.128906 280.265625 205.105469 276.5625 212.613281 C 276.636719 212.910156 276.695312 213.210938 276.753906 213.511719 C 277.5625 213.183594 278.378906 212.875 279.199219 212.566406 C 280.5625 209.722656 281.800781 206.816406 282.894531 203.847656 C 290.179688 184.023438 290.964844 161.925781 285.191406 141.621094 C 279.605469 121.988281 267.941406 104.242188 252.140625 91.277344 C 236.125 78.136719 216.28125 70.148438 195.597656 68.558594 C 174.660156 66.949219 153.410156 71.953125 135.449219 82.820312 C 124.328125 89.546875 114.5625 98.425781 106.777344 108.789062 C 99.164062 116.875 92.871094 126.195312 88.292969 136.332031 C 79.617188 155.546875 77.191406 177.273438 81.355469 197.9375 C 85.402344 218.03125 95.765625 236.671875 110.609375 250.824219 C 117.507812 257.402344 125.332031 262.972656 133.761719 267.367188 C 133.839844 267.3125 133.921875 267.261719 134.015625 267.214844 C 134.8125 266.820312 135.613281 266.441406 136.429688 266.101562 " fill-opacity="1" fill-rule="nonzero"/></g><path fill="#737373" d="M 263.828125 211.613281 C 264.273438 205.796875 265.285156 199.953125 264.910156 194.15625 C 266.957031 199.105469 268.199219 204.367188 268.554688 209.722656 C 268.761719 212.839844 268.679688 215.972656 268.296875 219.074219 C 268.078125 220.847656 267.738281 222.605469 267.34375 224.347656 C 267.019531 225.769531 266.515625 227.175781 266.355469 228.628906 C 266.097656 228.113281 265.855469 227.59375 265.632812 227.070312 C 265.542969 226.832031 265.445312 226.59375 265.34375 226.359375 C 264.800781 224.96875 264.371094 223.53125 264.105469 222.003906 C 263.507812 218.582031 263.5625 215.0625 263.828125 211.613281 Z M 291.164062 201.875 C 291.023438 202.976562 290.90625 204.074219 290.609375 205.164062 C 290.128906 206.933594 289.417969 208.632812 288.546875 210.246094 C 286.800781 213.492188 284.46875 216.414062 281.9375 219.085938 C 277.625 223.636719 272.464844 227.527344 268.363281 232.300781 C 268.773438 230.261719 269.300781 228.25 270.089844 226.269531 C 271.679688 222.25 274.078125 218.605469 277.03125 215.453125 C 281.503906 210.671875 286.894531 206.8125 291.164062 201.875 Z M 276.480469 229.683594 C 274.871094 230.859375 273.195312 231.945312 271.488281 232.972656 C 270.546875 233.535156 269.5625 234.042969 268.609375 234.597656 C 271.023438 231.941406 273.480469 229.386719 276.113281 226.929688 C 278.960938 224.269531 281.855469 221.640625 284.421875 218.703125 C 286.742188 216.054688 288.777344 213.125 290.242188 209.914062 C 291.082031 208.074219 291.925781 205.898438 292.292969 203.730469 C 291.972656 210.203125 289.226562 216.5 285.152344 221.542969 C 282.652344 224.632812 279.691406 227.34375 276.480469 229.683594 Z M 283.867188 236.40625 C 287.339844 240.339844 284.59375 245.050781 280.183594 246.492188 C 275.8125 247.921875 271.082031 247.070312 266.589844 247.910156 C 266.5625 247.316406 266.417969 246.757812 266.140625 246.230469 C 266.128906 246.199219 266.113281 246.171875 266.105469 246.140625 C 267.136719 245.5625 268.046875 244.734375 269.054688 244.109375 C 270.175781 243.410156 271.355469 242.792969 272.570312 242.273438 C 275.144531 241.167969 277.800781 240.753906 280.488281 240.058594 C 281.28125 239.855469 281.070312 238.730469 280.300781 238.683594 C 277.414062 238.519531 274.347656 239.46875 271.714844 240.570312 C 269.660156 241.429688 267.195312 242.546875 265.484375 244.15625 C 265.804688 243.511719 266.128906 242.878906 266.492188 242.285156 C 267.742188 240.246094 269.195312 238.320312 271.058594 236.796875 C 274.554688 233.941406 280.492188 232.585938 283.867188 236.40625 Z M 275.355469 254.882812 C 278.800781 257.582031 283.03125 262.890625 279.640625 267.25 C 276.160156 271.722656 269.820312 267.058594 267.425781 263.816406 C 266.046875 261.949219 265.015625 259.828125 264.226562 257.652344 C 263.726562 256.28125 263.449219 254.746094 263.007812 253.3125 C 263.476562 253.148438 263.910156 252.925781 264.3125 252.648438 C 264.9375 253.050781 265.585938 253.425781 266.1875 253.863281 C 267.34375 254.703125 268.417969 255.652344 269.433594 256.65625 C 271.460938 258.667969 273.207031 261.023438 274.5625 263.53125 C 274.910156 264.171875 276.0625 263.722656 275.769531 263.023438 C 274.582031 260.21875 273.066406 257.714844 271.03125 255.441406 C 269.671875 253.925781 267.855469 252.085938 265.898438 250.925781 C 265.972656 250.789062 266.042969 250.652344 266.109375 250.511719 C 266.933594 250.691406 267.75 250.890625 268.546875 251.171875 C 270.980469 252.035156 273.324219 253.289062 275.355469 254.882812 Z M 251.902344 269.570312 C 247.078125 267.765625 248.613281 262.171875 251.441406 259.308594 C 252.976562 257.757812 254.8125 256.5625 256.578125 255.292969 C 257.449219 254.664062 258.472656 254 259.335938 253.21875 C 259.496094 253.296875 259.660156 253.363281 259.828125 253.417969 C 259.679688 253.9375 259.542969 254.464844 259.371094 254.984375 C 258.902344 256.398438 258.277344 257.761719 257.511719 259.039062 C 256.011719 261.558594 253.9375 263.609375 251.714844 265.488281 C 251.058594 266.042969 251.894531 267.003906 252.597656 266.632812 C 255.429688 265.148438 257.675781 262.8125 259.390625 260.136719 C 260.027344 259.144531 260.742188 257.929688 261.300781 256.644531 C 261.636719 259.003906 261.78125 261.359375 261.054688 263.773438 C 259.910156 267.550781 256.09375 271.136719 251.902344 269.570312 Z M 244.800781 253.664062 C 240.664062 252.957031 236.496094 248.894531 238.578125 244.476562 C 240.617188 240.148438 245.992188 239.667969 250.066406 240.832031 C 252.160156 241.429688 254.113281 242.386719 255.941406 243.558594 C 256.453125 243.882812 256.9375 244.238281 257.410156 244.605469 C 257.152344 244.9375 256.898438 245.265625 256.644531 245.59375 C 256.511719 245.820312 256.398438 246.050781 256.304688 246.285156 C 254.84375 245.925781 253.296875 245.777344 251.984375 245.660156 C 248.949219 245.386719 245.777344 245.570312 242.925781 246.703125 C 242.257812 246.96875 242.25 248.199219 243.113281 248.09375 C 245.867188 247.75 248.589844 247.378906 251.367188 247.589844 C 252.820312 247.703125 254.253906 247.953125 255.660156 248.324219 C 255.746094 248.347656 255.832031 248.371094 255.914062 248.394531 C 255.90625 249.089844 256.054688 249.734375 256.371094 250.339844 C 256.417969 250.480469 256.476562 250.617188 256.535156 250.75 C 254.824219 251.492188 253.21875 252.449219 251.417969 253.019531 C 249.292969 253.695312 247.019531 254.042969 244.800781 253.664062 Z M 255.433594 222.515625 C 260.796875 220.390625 263.757812 227.730469 264.464844 231.65625 C 265.042969 234.878906 264.738281 237.9375 264.019531 240.960938 C 263.804688 239.644531 263.480469 238.371094 263.207031 237.300781 C 262.3125 233.832031 260.726562 230.929688 258.597656 228.070312 C 258.175781 227.5 257.234375 228.003906 257.621094 228.640625 C 259.257812 231.34375 260.457031 234.480469 261.238281 237.539062 C 261.648438 239.144531 261.925781 240.773438 262.042969 242.417969 C 262.054688 242.617188 262.0625 242.8125 262.066406 243.007812 C 261.800781 242.96875 261.535156 242.945312 261.257812 242.953125 C 261.101562 242.976562 260.945312 242.996094 260.789062 243.015625 C 258.785156 239.917969 255.980469 237.34375 254.027344 234.191406 C 251.929688 230.804688 250.566406 224.441406 255.433594 222.515625 Z M 266.789062 229.464844 C 266.753906 229.398438 266.714844 229.335938 266.683594 229.269531 C 266.730469 229.285156 266.78125 229.296875 266.832031 229.296875 C 266.820312 229.355469 266.804688 229.410156 266.789062 229.464844 Z M 275.539062 214.085938 C 275.117188 214.539062 274.699219 215 274.296875 215.472656 C 272.402344 217.683594 270.667969 220.265625 269.269531 223.042969 C 269.460938 221.878906 269.597656 220.726562 269.730469 219.65625 C 270.164062 216.171875 270.238281 212.640625 269.949219 209.136719 C 269.476562 203.390625 268.03125 197.785156 265.6875 192.535156 C 271.097656 198.296875 274.472656 205.683594 275.355469 213.621094 C 275.378906 213.804688 275.445312 213.960938 275.539062 214.085938 Z M 262.144531 221.882812 C 259.070312 219.300781 254.535156 219.160156 251.835938 222.335938 C 249.230469 225.40625 249.273438 229.582031 250.824219 233.121094 C 252.082031 235.992188 254.085938 238.394531 256.070312 240.816406 C 253.5625 239.339844 250.746094 238.339844 248.296875 237.972656 C 243.378906 237.238281 237.847656 239.191406 236.035156 244.1875 C 234.277344 249.03125 237.753906 253.929688 242.28125 255.546875 C 244.773438 256.4375 247.503906 256.441406 250.078125 255.921875 C 250.875 255.757812 251.714844 255.542969 252.558594 255.277344 C 250.480469 256.839844 248.460938 258.632812 247.316406 261.015625 C 245.304688 265.214844 246.660156 270.21875 251.277344 271.832031 C 255.765625 273.402344 260.472656 270.585938 262.453125 266.535156 C 263.089844 265.230469 263.496094 263.808594 263.710938 262.34375 C 264.082031 263.042969 264.488281 263.726562 264.933594 264.386719 C 267.339844 267.945312 271.058594 271.128906 275.542969 271.335938 C 279.886719 271.535156 283 268.109375 283.179688 263.917969 C 283.375 259.320312 279.992188 255.488281 276.546875 252.886719 C 274.84375 251.597656 272.980469 250.539062 271.011719 249.722656 C 275.617188 249.507812 280.363281 249.847656 284.238281 247.015625 C 288.257812 244.074219 288.980469 238.753906 285.703125 234.925781 C 283.46875 232.308594 280.132812 231.421875 276.882812 231.792969 C 277.386719 231.433594 277.890625 231.070312 278.382812 230.695312 C 281.757812 228.136719 284.832031 225.214844 287.394531 221.839844 C 292.605469 214.976562 295.367188 206.273438 293.886719 197.695312 C 293.726562 196.78125 292.488281 196.8125 292.054688 197.457031 C 288.046875 203.40625 282.113281 207.542969 277.0625 212.527344 C 276.0625 202.929688 271.132812 193.941406 263.691406 187.789062 C 262.914062 187.144531 261.628906 187.730469 261.921875 188.8125 C 264.148438 196.976562 262.105469 205.265625 261.792969 213.523438 C 261.691406 216.175781 261.746094 219.097656 262.203125 221.933594 C 262.183594 221.917969 262.164062 221.898438 262.144531 221.882812 " fill-opacity="1" fill-rule="nonzero"/><g clip-path="url(#id2)"><path fill="#737373" d="M 172.464844 304.757812 C 170.910156 299.71875 172.316406 294.234375 175.714844 290.289062 C 181.214844 296.570312 176.273438 306.238281 179.691406 313.441406 C 176.300781 311.589844 173.617188 308.496094 172.464844 304.757812 Z M 155.53125 301.265625 C 158.613281 300.582031 161.574219 298.980469 163.800781 296.984375 C 167.289062 293.859375 169.226562 289.5 169.78125 284.917969 C 170.296875 285.40625 170.828125 285.875 171.359375 286.328125 C 172.25 287.09375 173.167969 287.855469 174.140625 288.53125 C 171.542969 291.296875 169.933594 294.921875 169.550781 298.675781 C 167.421875 299.78125 165.53125 300.832031 163.074219 301.265625 C 160.59375 301.703125 158.03125 301.582031 155.53125 301.265625 Z M 167.535156 286.605469 C 166.917969 289.976562 165.183594 293.09375 162.640625 295.441406 C 161.261719 296.710938 159.789062 297.601562 158.230469 298.242188 C 158.996094 297.582031 159.667969 296.886719 160.195312 296.25 C 162.777344 293.109375 164.550781 289.339844 167.535156 286.605469 Z M 151.105469 296.566406 C 151.789062 293.753906 152.453125 290.941406 153.097656 288.121094 C 153.121094 288.019531 153.128906 287.925781 153.121094 287.832031 C 156.316406 286.25 159.207031 284.019531 161.429688 281.234375 C 162.664062 279.691406 163.554688 278 164.464844 276.257812 C 164.9375 275.355469 165.453125 274.453125 166.097656 273.699219 C 165.082031 275.984375 165.402344 278.875 166.667969 281.125 C 167.128906 281.945312 167.691406 282.695312 168.3125 283.40625 C 168.304688 283.40625 168.300781 283.410156 168.292969 283.414062 C 164.714844 285.441406 162.609375 289.09375 160.40625 292.414062 C 159.15625 294.304688 157.765625 296.222656 155.921875 297.589844 C 154.148438 298.902344 152.40625 299.128906 150.402344 299.476562 C 150.453125 299.261719 150.507812 299.046875 150.558594 298.835938 C 150.738281 298.078125 150.921875 297.320312 151.105469 296.566406 Z M 133.296875 288.648438 C 139.328125 288.066406 145.101562 285.925781 149.984375 282.253906 C 152.867188 280.082031 155.171875 277.371094 157.710938 274.835938 C 159.058594 273.484375 160.492188 272.226562 162.148438 271.257812 C 163.835938 270.265625 165.53125 269.925781 167.351562 269.4375 C 167.402344 269.664062 167.464844 269.886719 167.542969 270.105469 C 164.316406 271.183594 163.054688 274.53125 161.5 277.351562 C 159.683594 280.652344 156.910156 283.300781 153.675781 285.210938 C 147.523438 288.84375 140.285156 289.515625 133.296875 288.648438 Z M 143.238281 277.824219 C 147.675781 272.363281 152.386719 266.386719 159.851562 265.394531 C 159.914062 265.386719 159.972656 265.371094 160.027344 265.351562 C 160.109375 265.394531 160.191406 265.4375 160.273438 265.476562 C 160.546875 265.609375 160.816406 265.546875 160.996094 265.390625 C 162.824219 266.664062 165.089844 267.390625 167.273438 267.167969 C 167.222656 267.503906 167.199219 267.84375 167.203125 268.179688 C 164.414062 267.789062 161.339844 269.519531 159.242188 271.121094 C 156.21875 273.433594 153.914062 276.492188 151.128906 279.058594 C 146.304688 283.5 140.039062 286.335938 133.53125 287.175781 C 137.339844 284.824219 140.414062 281.296875 143.238281 277.824219 Z M 127.242188 270.324219 C 132.078125 269.648438 136.449219 266.925781 140.824219 264.835938 C 143.738281 263.445312 146.8125 262.335938 150.078125 262.332031 C 150.421875 262.332031 150.761719 262.34375 151.105469 262.363281 C 152.796875 262.867188 154.527344 263.246094 156.296875 263.480469 C 156.695312 263.644531 157.085938 263.824219 157.46875 264.015625 C 151.425781 264.957031 147.417969 269.285156 143.621094 274.027344 C 137.824219 274.386719 132.195312 273.203125 127.242188 270.324219 Z M 134.582031 249.949219 C 131.445312 246.765625 128.757812 243.179688 126.445312 239.367188 C 125.1875 237.296875 123.871094 235.023438 123.113281 232.652344 C 124.085938 234.503906 125.382812 236.195312 126.78125 237.578125 C 129.863281 240.628906 134.109375 241.886719 137.386719 244.648438 C 139.214844 246.191406 139.976562 248.230469 141.265625 250.164062 C 142.460938 251.957031 144.15625 253.015625 146.113281 253.839844 C 148.046875 254.65625 150.042969 255.277344 151.769531 256.496094 C 153.5625 257.761719 155.003906 259.460938 156 261.402344 C 154.769531 260.976562 153.5 260.6875 152.3125 260.519531 C 151.917969 260.460938 151.523438 260.421875 151.128906 260.394531 C 144.886719 258.332031 139.234375 254.667969 134.582031 249.949219 Z M 143.167969 241.269531 C 147.078125 243.773438 150.828125 246.707031 153.496094 250.554688 C 154.734375 252.339844 155.761719 254.308594 156.425781 256.378906 C 156.589844 256.890625 156.71875 257.402344 156.824219 257.917969 C 156.859375 258.421875 156.925781 258.917969 157.027344 259.40625 C 155.378906 256.714844 152.988281 254.605469 149.980469 253.320312 C 148.113281 252.527344 146.042969 252.011719 144.390625 250.789062 C 142.414062 249.320312 141.792969 246.746094 140.277344 244.890625 C 137.691406 241.722656 133.660156 240.386719 130.347656 238.179688 C 126.515625 235.625 124.574219 232.125 123.085938 228.054688 C 128.929688 233.605469 136.414062 236.945312 143.167969 241.269531 Z M 159.558594 249.34375 C 159.472656 247.824219 159.269531 246.21875 159.808594 244.753906 C 160.671875 242.394531 162.6875 241.398438 164.933594 241.007812 C 164.074219 241.609375 163.367188 242.4375 162.929688 243.484375 C 161.738281 246.339844 162.84375 249.429688 165.355469 251.136719 C 167.796875 252.800781 171.078125 253.375 174.089844 253.839844 C 171.945312 253.984375 169.78125 254.277344 167.847656 254.992188 C 165.632812 255.808594 163.824219 257.53125 163.863281 260.027344 C 163.898438 262.058594 165.046875 263.628906 166.570312 264.773438 C 164.160156 264.566406 162.019531 263.839844 160.476562 261.660156 C 158.742188 259.207031 159.019531 256.507812 159.390625 253.695312 C 159.585938 252.230469 159.640625 250.820312 159.558594 249.34375 Z M 169.664062 230.226562 C 171.070312 229.539062 172.40625 228.949219 173.421875 227.71875 C 174.328125 226.625 174.933594 224.527344 176.566406 224.425781 C 177.890625 224.34375 179.273438 225.253906 180.53125 225.566406 C 181.789062 225.878906 183.089844 225.90625 184.253906 225.265625 C 185.878906 224.367188 186.832031 222.890625 188.921875 223.023438 C 190.496094 223.125 191.695312 224.140625 192.515625 225.398438 C 191.097656 226.355469 190.125 227.902344 189.808594 229.710938 C 189.5 231.484375 189.699219 233.285156 190.089844 235.058594 C 188.976562 233.433594 187.714844 231.90625 186.265625 230.675781 C 184.167969 228.890625 181.117188 227.792969 178.519531 229.214844 C 177.164062 229.957031 176.316406 231.308594 176.167969 232.746094 C 174.109375 232.226562 171.84375 232.671875 170.222656 234.15625 C 168.785156 235.472656 168.15625 237.292969 168.238281 239.125 C 164.925781 236.40625 166.007812 232.011719 169.664062 230.226562 Z M 199.078125 221.726562 C 200.496094 221 202.054688 221.832031 202.742188 223.121094 C 203.148438 223.878906 204.21875 223.949219 204.804688 223.382812 C 206.492188 221.761719 209.109375 221.445312 211.195312 222.503906 C 213.578125 223.71875 213.976562 226.578125 215.335938 228.632812 C 215.96875 229.589844 216.742188 230.351562 217.742188 230.917969 C 219.058594 231.664062 220.3125 231.964844 220.9375 233.488281 C 221.960938 235.980469 220.777344 238.558594 219.621094 240.878906 C 219.101562 240.351562 218.507812 239.910156 217.972656 239.382812 C 217.089844 238.511719 216.765625 237.46875 216.386719 236.324219 C 215.777344 234.488281 214.980469 232.558594 213.144531 231.648438 C 212.359375 231.261719 211.503906 231.121094 210.6875 231.242188 C 209.46875 227.261719 205.058594 225.027344 201.078125 226.65625 C 200.210938 225.621094 199.011719 224.910156 197.703125 224.578125 C 197.695312 223.441406 197.894531 222.328125 199.078125 221.726562 Z M 233.324219 219.703125 C 233.289062 221.074219 233.222656 222.441406 233.109375 223.808594 C 232.949219 225.664062 232.53125 227.550781 232.464844 229.414062 C 229.890625 231.171875 227.476562 233.152344 225.28125 235.363281 C 226.003906 233.308594 226.605469 231.203125 227.332031 229.246094 C 228.65625 225.683594 230.386719 222.132812 233.324219 219.703125 Z M 222.710938 240.878906 C 228.648438 234.25 235.863281 228.855469 244.148438 225.550781 C 239.667969 233.757812 233.152344 242.726562 222.710938 240.878906 Z M 225.398438 245.894531 C 227.03125 247.804688 226.917969 251.085938 224.128906 251.816406 C 222.945312 252.128906 223.164062 253.613281 224.128906 254.007812 C 225.914062 254.738281 227.445312 256.4375 227.5 258.429688 C 227.554688 260.480469 225.875 262.285156 223.824219 262.304688 C 222.980469 262.316406 222.273438 263.324219 222.800781 264.085938 C 224.136719 266.019531 225.738281 268.644531 224.847656 271.078125 C 224.523438 271.972656 223.832031 272.789062 222.960938 273.203125 C 222.296875 273.519531 221.621094 273.398438 220.9375 273.429688 C 220.960938 271.234375 220.09375 268.996094 218.769531 267.214844 C 216.070312 263.578125 212.132812 260.660156 207.773438 258.695312 C 208.851562 258.910156 209.917969 259.171875 210.980469 259.484375 C 211.789062 259.726562 212.089844 258.527344 211.324219 258.246094 C 209.390625 257.535156 207.277344 256.886719 205.121094 256.484375 C 206.417969 256.363281 207.726562 256.3125 209.082031 256.402344 C 212.359375 256.613281 215.78125 257.394531 218.804688 258.6875 C 219.449219 258.964844 220.027344 258.0625 219.371094 257.726562 C 213.84375 254.886719 206.507812 253.332031 200.355469 255.28125 C 200.351562 254.84375 200.296875 254.417969 200.1875 254.007812 C 203.214844 253.96875 206.300781 253.441406 209.09375 252.859375 C 213.121094 252.023438 218.890625 250.851562 220.640625 246.578125 C 221.035156 245.621094 221.175781 244.597656 221.027344 243.621094 C 222.671875 243.992188 224.246094 244.539062 225.398438 245.894531 Z M 209.855469 276.898438 C 209.058594 276.609375 208.113281 277.523438 208.421875 278.328125 C 209.78125 281.863281 205.242188 284.785156 202.910156 281.53125 C 202.316406 280.699219 201.101562 280.8125 200.761719 281.8125 C 199.828125 284.550781 196.386719 284.867188 194.898438 282.425781 C 194.5 281.773438 193.664062 281.710938 193.113281 282.195312 C 190.976562 284.082031 189.316406 280.546875 189.144531 278.914062 C 188.9375 276.898438 189.140625 274.789062 189.425781 272.792969 C 189.96875 268.976562 191.367188 265.664062 192.742188 262.144531 C 193.042969 262.1875 193.351562 262.203125 193.667969 262.191406 C 194.261719 262.113281 194.855469 262.035156 195.445312 261.953125 C 195.898438 261.828125 196.324219 261.660156 196.730469 261.449219 C 197.363281 262.671875 198.015625 263.847656 198.296875 265.292969 C 198.703125 267.367188 198.421875 269.375 198.085938 271.433594 C 197.976562 272.089844 198.828125 272.546875 199.210938 271.90625 C 200.980469 268.957031 200.941406 264.089844 199.050781 260.839844 C 199.882812 261.59375 200.660156 262.414062 201.359375 263.285156 C 203.296875 265.679688 204.671875 268.570312 205.300781 271.578125 C 205.492188 272.484375 206.800781 272.078125 206.671875 271.203125 C 206.175781 267.863281 204.976562 264.777344 202.957031 262.054688 C 202.160156 260.980469 201 259.558594 199.683594 258.429688 C 199.683594 258.425781 199.6875 258.417969 199.691406 258.414062 C 205.117188 259.882812 210.261719 262.289062 214.476562 266.101562 C 216.804688 268.207031 219.261719 271.191406 218.40625 274.554688 C 217.363281 278.640625 212.9375 278.011719 209.855469 276.898438 Z M 205.925781 286.851562 C 205.234375 286.25 203.847656 286.589844 203.9375 287.671875 C 204.15625 290.257812 201.0625 289.578125 199.859375 288.441406 C 199.207031 287.824219 198.8125 287.042969 198.347656 286.324219 C 199.832031 286.152344 201.25 285.382812 202.203125 284.058594 C 203.847656 285.296875 206.039062 285.6875 208.011719 284.722656 C 209.9375 283.785156 211.027344 281.75 211.027344 279.695312 C 213.074219 280.207031 215.28125 280.335938 217.132812 279.546875 C 216.648438 284.664062 210.722656 291.015625 205.925781 286.851562 Z M 226.785156 279.339844 C 228.523438 280.160156 229.792969 281.578125 231.152344 282.882812 C 231.125 282.917969 231.101562 282.949219 231.074219 282.984375 C 230.867188 283.34375 230.730469 283.726562 230.664062 284.125 C 228.503906 284.949219 225.929688 285.871094 223.59375 285.46875 C 221.351562 285.082031 219.042969 282.972656 220.414062 280.605469 C 221.726562 278.332031 224.660156 278.339844 226.785156 279.339844 Z M 234.898438 267.4375 C 238.8125 267.789062 238.75 273.226562 238.25 276.039062 C 238.152344 276.582031 238.027344 277.109375 237.882812 277.632812 C 236.902344 278.84375 236.066406 280.179688 235.339844 281.570312 C 234.9375 281.363281 234.503906 281.269531 234.042969 281.285156 C 233.992188 281.292969 233.941406 281.300781 233.890625 281.304688 C 232.40625 279.015625 230.609375 277.015625 230.144531 274.148438 C 229.664062 271.160156 231.253906 267.109375 234.898438 267.4375 Z M 240.929688 278.015625 C 242.875 276.085938 246.671875 273.804688 249.417969 275.460938 C 253.074219 277.671875 246.097656 281.378906 244.277344 282.113281 C 242.054688 283.011719 239.714844 283.441406 237.398438 283.972656 C 237.359375 283.820312 237.308594 283.675781 237.242188 283.53125 C 238.125 282.410156 238.835938 281.160156 239.386719 279.839844 C 239.851562 279.195312 240.359375 278.585938 240.929688 278.015625 Z M 261.304688 283.554688 C 265.238281 284.171875 269.039062 285.355469 272.761719 286.75 C 264.664062 285.785156 256.535156 284.832031 248.410156 284.191406 C 249.453125 283.875 250.515625 283.613281 251.632812 283.449219 C 254.828125 282.972656 258.113281 283.058594 261.304688 283.554688 Z M 261.683594 289.609375 C 256.84375 289.125 252.375 287.738281 248.007812 285.867188 C 257.503906 287.042969 267.09375 287.796875 276.625 288.589844 C 271.742188 289.757812 266.707031 290.117188 261.683594 289.609375 Z M 249.039062 294.378906 C 246.582031 297.171875 242.039062 294.429688 239.847656 292.621094 C 238.128906 291.207031 237.003906 289.40625 235.71875 287.699219 C 235.992188 287.546875 236.242188 287.363281 236.46875 287.136719 C 236.648438 286.902344 236.828125 286.671875 237.003906 286.441406 C 237.078125 286.320312 237.136719 286.195312 237.191406 286.070312 C 237.84375 286.03125 238.5 285.964844 239.152344 285.878906 C 240.796875 286.089844 242.410156 286.523438 243.902344 287.199219 C 246.0625 288.183594 251.589844 291.484375 249.039062 294.378906 Z M 233.253906 297.039062 C 231.59375 299.285156 228.367188 300.253906 225.984375 298.480469 C 223.269531 296.453125 224.320312 292.527344 226.210938 290.347656 C 227.121094 289.292969 228.230469 288.445312 229.398438 287.699219 C 230.019531 287.304688 230.65625 287.015625 231.167969 286.597656 C 231.289062 286.792969 231.4375 286.972656 231.613281 287.136719 C 231.921875 287.46875 232.289062 287.707031 232.71875 287.84375 C 233.003906 287.996094 233.304688 288.085938 233.621094 288.121094 C 234.878906 290.914062 235.160156 294.457031 233.253906 297.039062 Z M 199.324219 229.28125 C 199.660156 229.96875 200.691406 230.203125 201.316406 229.804688 C 204.335938 227.886719 208.066406 229.808594 208.042969 233.421875 C 208.035156 234.699219 209.679688 235.386719 210.578125 234.472656 C 211.980469 233.046875 213.179688 236.292969 213.449219 237.132812 C 213.871094 238.4375 214.285156 239.746094 215.148438 240.835938 C 215.96875 241.871094 217.816406 242.746094 217.988281 244.152344 C 218.199219 245.855469 216.503906 247.054688 215.171875 247.652344 C 212.0625 249.046875 208.394531 249.730469 205.050781 250.25 C 203.402344 250.507812 201.738281 250.628906 200.074219 250.746094 C 204.433594 248 208.046875 243.667969 209.582031 238.914062 C 209.769531 238.339844 208.910156 237.988281 208.613281 238.507812 C 207.09375 241.164062 205.382812 243.710938 203.199219 245.871094 C 202.257812 246.800781 201.253906 247.601562 200.207031 248.324219 C 200.558594 247.242188 200.8125 246.132812 201.015625 245.132812 C 201.539062 242.554688 201.582031 240.03125 201.253906 237.425781 C 201.164062 236.71875 200.09375 236.667969 200.105469 237.425781 C 200.140625 239.847656 199.890625 242.3125 199.355469 244.675781 C 198.929688 246.535156 198.074219 248.234375 197.464844 250.007812 C 197.460938 250.011719 197.457031 250.015625 197.453125 250.015625 C 197.257812 249.886719 197.054688 249.769531 196.84375 249.671875 C 195.464844 244.546875 193.921875 239.4375 192.84375 234.257812 C 192.410156 232.160156 192.035156 228.910156 194.289062 227.652344 C 196.09375 226.648438 198.445312 227.503906 199.324219 229.28125 Z M 170.929688 240.617188 C 169.140625 236.625 173.785156 233.429688 177.164062 235.800781 C 178.171875 236.507812 179.371094 235.144531 178.796875 234.171875 C 178.230469 233.214844 178.574219 232.015625 179.503906 231.394531 C 180.574219 230.671875 182.089844 230.910156 183.183594 231.441406 C 185.378906 232.507812 186.941406 234.847656 188.308594 236.773438 C 189.96875 239.121094 191.351562 241.617188 192.597656 244.183594 C 193.027344 245.742188 193.457031 247.300781 193.890625 248.859375 C 193.816406 248.859375 193.746094 248.855469 193.667969 248.859375 C 193.21875 248.917969 192.769531 248.980469 192.320312 249.039062 C 191.519531 246.726562 189.742188 244.574219 188.050781 243.042969 C 185.6875 240.902344 182.65625 239.335938 179.449219 239.132812 C 178.742188 239.089844 178.648438 240.132812 179.285156 240.328125 C 182.148438 241.214844 184.757812 242.402344 186.957031 244.484375 C 188.148438 245.605469 188.953125 246.84375 189.667969 248.148438 C 187.496094 245.628906 183.308594 244.328125 180.136719 244.882812 C 179.59375 244.976562 179.597656 245.871094 180.136719 245.972656 C 181.730469 246.265625 183.296875 246.523438 184.804688 247.152344 C 186.351562 247.796875 187.5 248.855469 188.890625 249.730469 C 189.414062 250.054688 190.101562 249.605469 190.15625 249.070312 C 190.261719 249.273438 190.367188 249.472656 190.46875 249.675781 C 189.917969 249.976562 189.40625 250.355469 188.945312 250.8125 C 188.597656 251.261719 188.25 251.710938 187.898438 252.160156 C 187.761719 252.398438 187.640625 252.640625 187.535156 252.886719 C 182.011719 252.601562 176.546875 252.011719 171.136719 250.78125 C 168.902344 250.269531 165.917969 249.613281 165.039062 247.1875 C 163.980469 244.257812 166.6875 241.660156 169.585938 242.359375 C 170.667969 242.621094 171.347656 241.539062 170.929688 240.617188 Z M 170.398438 265.921875 C 170.855469 265.386719 170.933594 264.332031 170.152344 263.988281 C 168.207031 263.136719 165.011719 261.0625 166.644531 258.53125 C 167.753906 256.816406 170.597656 256.566406 172.414062 256.316406 C 177.28125 255.636719 182.105469 255.746094 186.984375 255.871094 C 186.992188 256.179688 187.03125 256.484375 187.089844 256.78125 C 183.957031 257.328125 180.796875 258.605469 177.875 259.742188 C 177.140625 260.027344 177.414062 261.085938 178.203125 260.929688 C 181.164062 260.339844 184.410156 259.742188 187.269531 258.601562 C 186.394531 259.132812 185.515625 259.664062 184.59375 260.117188 C 182.425781 261.1875 180.152344 262.101562 177.875 262.914062 C 177.074219 263.199219 177.386719 264.347656 178.222656 264.183594 C 181.675781 263.503906 185.667969 262.199219 188.824219 260.113281 C 188.859375 260.148438 188.886719 260.179688 188.917969 260.210938 C 186.625 265.035156 186.949219 270.804688 184.109375 275.40625 C 182.683594 277.707031 180.28125 279.652344 177.417969 279.363281 C 174.695312 279.085938 172.304688 275.894531 174.464844 273.484375 C 175.089844 272.789062 174.734375 271.285156 173.605469 271.417969 C 170.496094 271.777344 168.195312 268.511719 170.398438 265.921875 Z M 192.535156 289.464844 C 190.507812 289.957031 189.460938 288.539062 187.90625 287.632812 C 184.796875 285.828125 181.773438 289.035156 178.5625 288.058594 C 175.339844 287.082031 172.203125 284.144531 170.066406 281.625 C 168.09375 279.296875 166.628906 274.972656 169.933594 273.097656 C 170.433594 273.398438 170.992188 273.625 171.601562 273.757812 C 170.953125 275.6875 171.335938 277.898438 172.730469 279.539062 C 174.855469 282.039062 178.652344 282.320312 181.507812 281.019531 C 183.886719 279.933594 185.449219 278.210938 186.5625 276.160156 C 186.558594 276.628906 186.5625 277.09375 186.578125 277.550781 C 186.660156 279.863281 187.132812 282.472656 189.144531 283.914062 C 190.515625 284.894531 192.179688 285.136719 193.617188 284.5 C 194.09375 285.03125 194.632812 285.449219 195.214844 285.75 C 195.179688 287.429688 194.300781 289.035156 192.535156 289.464844 Z M 190.230469 293.722656 C 191.304688 294.652344 192.390625 295.566406 193.472656 296.488281 C 190.773438 295.386719 188.679688 293.121094 186.773438 290.8125 C 187.90625 291.820312 189.121094 292.761719 190.230469 293.722656 Z M 181.035156 311.316406 C 179.828125 307.5 180.527344 303.300781 180.464844 299.257812 C 180.433594 297.433594 180.207031 295.566406 179.640625 293.859375 C 179.910156 294.28125 180.15625 294.742188 180.363281 295.261719 C 181.035156 296.949219 181.367188 298.804688 181.453125 300.609375 C 181.566406 302.882812 181.328125 305.15625 181.183594 307.421875 C 181.105469 308.667969 180.984375 310.003906 181.035156 311.316406 Z M 182.910156 312.800781 C 183.136719 310.578125 183.125 308.285156 183.308594 306.074219 C 183.515625 303.628906 183.660156 301.167969 183.320312 298.730469 C 182.949219 296.050781 181.808594 292.667969 179.625 290.707031 C 180.875 290.761719 182.097656 290.511719 183.398438 290.078125 C 188.917969 296.8125 186.148438 305.53125 182.910156 312.800781 Z M 183.664062 316.394531 C 186.601562 310.128906 189.953125 301.957031 188.101562 295.03125 C 190.484375 297.273438 193.304688 298.921875 196.757812 299.007812 C 197.507812 299.027344 198.019531 297.96875 197.40625 297.445312 C 195.347656 295.710938 193.28125 293.988281 191.207031 292.273438 C 191.03125 292.132812 190.859375 291.984375 190.683594 291.835938 C 193.363281 292.191406 195.707031 290.589844 196.609375 288.296875 C 197.691406 290.066406 199.679688 291.539062 201.472656 291.824219 C 203.324219 292.121094 205.175781 291.15625 205.929688 289.574219 C 210.589844 291.832031 216.21875 288.4375 218.152344 283.78125 C 218.71875 285.125 219.867188 286.246094 221.296875 286.878906 C 222.789062 287.539062 224.253906 287.617188 225.683594 287.371094 C 224.394531 288.484375 223.308594 289.796875 222.640625 291.386719 C 221.164062 294.886719 221.9375 299.210938 225.585938 300.988281 C 228.882812 302.597656 232.730469 301.425781 234.890625 298.566406 C 236.246094 296.773438 236.75 294.71875 236.59375 292.675781 C 237.769531 293.882812 239.132812 294.925781 240.429688 295.730469 C 243.574219 297.679688 248.558594 299.027344 251.0625 295.332031 C 252.640625 293.007812 251.636719 290.667969 249.945312 288.820312 C 259.445312 292.539062 270.742188 292.542969 280.167969 289.519531 C 281.089844 289.226562 280.988281 288.082031 280.167969 287.75 C 273.867188 285.195312 267.46875 282.613281 260.671875 281.757812 C 257.125 281.3125 253.035156 281.269531 249.289062 282.140625 C 251.953125 280.234375 254.667969 277.015625 251.792969 274.058594 C 248.941406 271.128906 243.945312 272.53125 241.046875 274.609375 C 240.917969 274.699219 240.792969 274.796875 240.667969 274.894531 C 240.710938 274.542969 240.746094 274.191406 240.769531 273.839844 C 241.011719 270.039062 239.332031 265.203125 234.835938 265.027344 C 231.015625 264.875 228.121094 268.101562 227.722656 271.707031 C 227.492188 273.769531 227.960938 275.953125 228.851562 277.984375 C 227.808594 277.328125 226.675781 276.839844 225.484375 276.601562 C 222.972656 276.101562 220.171875 276.921875 218.710938 279.019531 C 218.683594 278.886719 218.65625 278.757812 218.625 278.628906 C 218.980469 278.324219 219.308594 277.972656 219.605469 277.5625 C 220.0625 276.9375 220.382812 276.273438 220.601562 275.589844 C 222.574219 276.71875 225.523438 274.714844 226.585938 272.976562 C 228.277344 270.191406 227.292969 266.964844 225.753906 264.3125 C 228 263.503906 229.675781 261.394531 229.820312 258.90625 C 229.96875 256.445312 228.648438 254.335938 226.761719 252.945312 C 228.628906 251.371094 229.238281 248.597656 228.121094 246.226562 C 227.492188 244.890625 226.484375 243.84375 225.277344 243.097656 C 229.429688 243.132812 233.574219 241.238281 236.738281 238.660156 C 241.394531 234.867188 244.289062 229.390625 247.105469 224.214844 C 247.5 223.492188 246.839844 222.46875 245.984375 222.753906 C 242.054688 224.058594 238.277344 225.789062 234.757812 227.925781 C 234.964844 226.664062 235.050781 225.359375 235.171875 224.132812 C 235.382812 221.957031 235.496094 219.777344 235.527344 217.589844 C 235.539062 216.765625 234.597656 216.246094 233.894531 216.65625 C 230.054688 218.890625 227.625 222.648438 225.964844 226.671875 C 225.039062 228.917969 224.367188 231.269531 223.667969 233.59375 C 223.664062 233.578125 223.660156 233.5625 223.660156 233.546875 C 223.316406 232.078125 222.492188 230.742188 221.261719 229.855469 C 220.5 229.304688 219.59375 229.050781 218.804688 228.546875 C 217.941406 227.988281 217.4375 227.175781 216.980469 226.28125 C 215.539062 223.449219 214.5 220.785156 211.214844 219.703125 C 208.820312 218.917969 206.203125 219.25 204.136719 220.59375 C 202.632812 219.023438 200.25 218.351562 198.171875 219.273438 C 196.21875 220.140625 194.886719 222.328125 195.0625 224.433594 C 194.785156 224.472656 194.515625 224.523438 194.257812 224.59375 C 193.171875 221.222656 189.011719 219.582031 185.644531 221.179688 C 184.707031 221.625 184.066406 222.464844 183.171875 222.9375 C 182.09375 223.503906 180.976562 223 179.921875 222.621094 C 178.242188 222.015625 176.398438 221.359375 174.671875 222.21875 C 172.695312 223.199219 172.28125 225.503906 170.605469 226.757812 C 168.800781 228.105469 166.667969 228.460938 165.203125 230.320312 C 163.101562 232.976562 163.101562 236.550781 164.824219 239.195312 C 162.417969 239.042969 159.9375 240.554688 158.574219 242.4375 C 157.578125 243.8125 157.230469 245.429688 157.195312 247.105469 C 157.152344 249.03125 157.261719 250.859375 157.128906 252.746094 C 156.824219 252.128906 156.5 251.535156 156.167969 250.976562 C 153.808594 247.027344 150.398438 243.890625 146.667969 241.253906 C 138.777344 235.671875 129.347656 232.273438 122.683594 225.050781 C 122.199219 224.527344 121.351562 224.824219 121.15625 225.453125 C 119.703125 230.113281 121.714844 234.753906 124.003906 238.78125 C 126.472656 243.117188 129.417969 247.222656 132.878906 250.832031 C 136.796875 254.917969 141.457031 258.375 146.609375 260.6875 C 145.285156 260.9375 143.984375 261.320312 142.710938 261.808594 C 136.605469 264.15625 131.027344 268.734375 124.191406 268.511719 C 123.160156 268.480469 122.957031 269.808594 123.699219 270.324219 C 129.089844 274.070312 135.703125 276.117188 142.269531 275.738281 C 138.183594 280.941406 134.089844 286.207031 127.671875 287.742188 C 126.816406 287.945312 126.8125 289.273438 127.671875 289.472656 C 135.324219 291.257812 143.457031 291.707031 150.839844 288.84375 C 150.058594 292.101562 149.3125 295.367188 148.554688 298.628906 C 148.320312 299.625 147.796875 300.871094 148.613281 301.734375 C 149.5 302.671875 151.550781 302.636719 152.71875 302.828125 C 156.039062 303.367188 159.40625 303.726562 162.757812 303.253906 C 164.925781 302.949219 167.554688 302.242188 169.46875 300.863281 C 169.507812 302.386719 169.753906 303.90625 170.222656 305.375 C 172.015625 311.003906 176.742188 315.359375 182.425781 316.898438 C 182.855469 317.015625 183.460938 316.828125 183.664062 316.394531 " fill-opacity="1" fill-rule="nonzero"/></g><path fill="#737373" d="M 121.015625 100.304688 C 126.105469 106.949219 129.503906 116.421875 138.351562 118.515625 C 128.496094 118.5 120.53125 110.171875 121.015625 100.304688 Z M 130.152344 71.355469 C 135.367188 64.453125 142.464844 59.136719 150.449219 55.859375 C 149.691406 57.296875 148.992188 58.753906 148.105469 60.132812 C 146.9375 61.941406 145.613281 63.648438 144.203125 65.269531 C 141.40625 68.488281 138.304688 71.4375 135.253906 74.410156 C 129.703125 79.820312 123.941406 85.648438 121.082031 92.988281 C 121.574219 90.074219 122.167969 87.195312 123.175781 84.34375 C 124.8125 79.695312 127.179688 75.292969 130.152344 71.355469 Z M 139.164062 78.09375 C 134.433594 81.972656 128.867188 85.242188 124.488281 89.605469 C 127.878906 83.804688 132.738281 79.054688 137.550781 74.300781 C 140.519531 71.363281 143.46875 68.398438 146.070312 65.125 C 148.214844 62.425781 150.5625 59.273438 151.65625 55.917969 C 150.699219 64.777344 146.085938 72.417969 139.164062 78.09375 Z M 142.539062 93.644531 C 149.152344 93.632812 155.738281 94.246094 162.308594 94.972656 C 162.09375 95.070312 161.878906 95.167969 161.664062 95.265625 C 158.332031 94.960938 154.738281 95.472656 151.421875 95.59375 C 148 95.71875 144.582031 95.863281 141.164062 96.015625 C 134.269531 96.320312 127.34375 96.472656 120.472656 97.125 C 120.457031 97.125 120.441406 97.125 120.425781 97.125 C 120.433594 97.078125 120.441406 97.039062 120.445312 96.992188 C 123.863281 96.230469 127.164062 95.085938 130.648438 94.53125 C 134.578125 93.90625 138.558594 93.652344 142.539062 93.644531 Z M 123.503906 99.234375 C 123.015625 98.859375 122.511719 98.503906 121.984375 98.171875 C 128.488281 98.214844 135.007812 97.851562 141.503906 97.625 C 145.039062 97.503906 148.570312 97.371094 152.105469 97.222656 C 153.8125 97.148438 155.597656 97.175781 157.375 97.128906 C 146.441406 101.664062 134.265625 104.867188 123.503906 99.234375 Z M 135.445312 115.800781 C 130.441406 112.820312 127.601562 107.199219 124.410156 102.144531 C 128.453125 106.351562 131.425781 111.585938 135.445312 115.800781 Z M 141.121094 118.476562 C 135.109375 114.671875 131.8125 107.953125 127.175781 102.722656 C 139.972656 106.742188 154.214844 100.652344 165.960938 95.214844 C 166.84375 94.808594 166.277344 93.664062 165.515625 93.578125 C 157.578125 92.675781 149.597656 91.785156 141.597656 91.941406 C 137.890625 92.011719 134.179688 92.296875 130.523438 92.917969 C 127.765625 93.382812 124.761719 93.949219 122.054688 95.003906 C 127.480469 87.921875 135.449219 83.851562 142.035156 78.003906 C 148.980469 71.835938 153.1875 63.304688 153.632812 54.019531 C 153.660156 53.453125 153.023438 52.949219 152.476562 53.140625 C 143.304688 56.339844 135.148438 62.164062 129.210938 69.851562 C 126.054688 73.9375 123.574219 78.507812 121.828125 83.363281 C 120.128906 88.078125 118.753906 93.496094 119.164062 98.542969 C 119.175781 98.65625 119.226562 98.75 119.296875 98.832031 C 118.589844 104.402344 120.332031 110.171875 124.234375 114.292969 C 128.417969 118.707031 134.714844 120.777344 140.714844 119.976562 C 141.472656 119.875 141.851562 118.941406 141.121094 118.476562 " fill-opacity="1" fill-rule="nonzero"/><g fill="#737373" fill-opacity="1"><g transform="translate(199.065372, 192.721598)"><g><path d="M 22.484375 0.609375 C 22.148438 0.609375 21.984375 0.488281 21.984375 0.25 C 21.984375 0.0195312 22.046875 -0.144531 22.171875 -0.25 C 23.203125 -1.039062 24.132812 -2.554688 24.96875 -4.796875 C 25.28125 -5.710938 25.628906 -6.78125 26.015625 -8 L 27.359375 -12.421875 C 29.898438 -20.703125 33.878906 -29.457031 39.296875 -38.6875 L 30.71875 -28.09375 L 24.578125 -20.96875 L 20.765625 -16.703125 C 13.046875 -8.253906 7.019531 -3.03125 2.6875 -1.03125 C 1.101562 -0.300781 -0.285156 0.0625 -1.484375 0.0625 C -2.691406 0.0625 -3.703125 -0.046875 -4.515625 -0.265625 C -5.328125 -0.492188 -6 -0.8125 -6.53125 -1.21875 C -7.570312 -2.007812 -8.09375 -3.019531 -8.09375 -4.25 C -8.09375 -5.101562 -7.847656 -5.710938 -7.359375 -6.078125 C -6.628906 -6.648438 -5.988281 -6.9375 -5.4375 -6.9375 C -4.132812 -6.9375 -3.484375 -6.445312 -3.484375 -5.46875 C -3.484375 -5.039062 -3.664062 -4.664062 -4.03125 -4.34375 C -4.394531 -4.03125 -4.859375 -3.875 -5.421875 -3.875 C -5.984375 -3.875 -6.445312 -3.976562 -6.8125 -4.1875 L -6.8125 -4 C -6.8125 -3.0625 -6.398438 -2.289062 -5.578125 -1.6875 C -4.765625 -1.09375 -3.671875 -0.796875 -2.296875 -0.796875 C -0.929688 -0.796875 0.441406 -1.09375 1.828125 -1.6875 C 3.210938 -2.289062 4.832031 -3.285156 6.6875 -4.671875 C 10.675781 -7.617188 15.46875 -12.226562 21.0625 -18.5 L 29.921875 -28.671875 C 37.203125 -37.378906 41.300781 -42.414062 42.21875 -43.78125 C 42.601562 -44.25 42.878906 -44.484375 43.046875 -44.484375 C 43.210938 -44.484375 43.296875 -44.410156 43.296875 -44.265625 C 43.296875 -44.117188 43.253906 -43.957031 43.171875 -43.78125 L 42.734375 -42.953125 C 41.941406 -41.648438 41.335938 -40.253906 40.921875 -38.765625 C 40.503906 -37.285156 40.179688 -36.113281 39.953125 -35.25 C 39.734375 -34.382812 39.472656 -33.453125 39.171875 -32.453125 L 38.15625 -29.0625 C 36.632812 -24.28125 34.796875 -19.832031 32.640625 -15.71875 C 32.640625 -15.71875 30.785156 -12.378906 27.078125 -5.703125 L 36.78125 -17.21875 L 41.03125 -22.078125 L 45.453125 -26.953125 L 49.765625 -31.5625 C 57.921875 -40.007812 64.769531 -45.128906 70.3125 -46.921875 C 72.1875 -47.535156 74.144531 -47.847656 76.1875 -47.859375 C 78.226562 -47.867188 79.816406 -47.378906 80.953125 -46.390625 C 82.097656 -45.398438 82.679688 -44 82.703125 -42.1875 C 82.742188 -40.15625 81.71875 -37.890625 79.625 -35.390625 C 77.445312 -32.835938 74.71875 -30.769531 71.4375 -29.1875 C 70.664062 -28.820312 70.113281 -28.640625 69.78125 -28.640625 C 69.457031 -28.640625 69.296875 -28.71875 69.296875 -28.875 C 69.296875 -29.039062 69.703125 -29.285156 70.515625 -29.609375 C 71.335938 -29.941406 72.394531 -30.546875 73.6875 -31.421875 C 74.976562 -32.296875 76.148438 -33.28125 77.203125 -34.375 C 79.523438 -36.875 80.6875 -39.296875 80.6875 -41.640625 C 80.6875 -43.328125 80.234375 -44.632812 79.328125 -45.5625 C 78.421875 -46.488281 77.109375 -46.953125 75.390625 -46.953125 C 73.671875 -46.953125 71.804688 -46.578125 69.796875 -45.828125 C 67.796875 -45.085938 65.613281 -43.894531 63.25 -42.25 C 58.570312 -39.03125 52.925781 -33.800781 46.3125 -26.5625 L 38.859375 -18.21875 L 32.640625 -10.90625 L 24.234375 -0.890625 C 23.398438 0.109375 22.816406 0.609375 22.484375 0.609375 Z M 16.390625 -36.8125 C 16.003906 -36.363281 15.597656 -36.140625 15.171875 -36.140625 C 14.742188 -36.140625 14.367188 -36.269531 14.046875 -36.53125 C 13.722656 -36.800781 13.5625 -37.132812 13.5625 -37.53125 C 13.5625 -37.925781 13.695312 -38.269531 13.96875 -38.5625 C 14.238281 -38.863281 14.597656 -39.015625 15.046875 -39.015625 C 15.492188 -39.015625 15.898438 -38.910156 16.265625 -38.703125 C 16.640625 -38.503906 16.976562 -38.210938 17.28125 -37.828125 C 17.925781 -36.992188 18.25 -35.941406 18.25 -34.671875 C 18.25 -33.410156 17.957031 -32.25 17.375 -31.1875 C 16.800781 -30.132812 16.046875 -29.234375 15.109375 -28.484375 C 13.097656 -26.878906 10.78125 -26.078125 8.15625 -26.078125 C 5.488281 -26.078125 3.289062 -26.816406 1.5625 -28.296875 C -0.351562 -29.890625 -1.3125 -32.097656 -1.3125 -34.921875 C -1.3125 -37.953125 0.0195312 -40.476562 2.6875 -42.5 C 5.375 -44.550781 8.84375 -45.578125 13.09375 -45.578125 C 15.632812 -45.578125 17.554688 -45.378906 18.859375 -44.984375 C 20.171875 -44.585938 21.304688 -44.191406 22.265625 -43.796875 C 23.234375 -43.398438 24.195312 -42.96875 25.15625 -42.5 L 28.421875 -41 C 30.085938 -40.3125 31.441406 -39.96875 32.484375 -39.96875 C 34.515625 -39.96875 36.316406 -40.675781 37.890625 -42.09375 C 37.992188 -42.175781 38.113281 -42.21875 38.25 -42.21875 C 38.394531 -42.21875 38.46875 -42.140625 38.46875 -41.984375 C 38.46875 -41.816406 38.316406 -41.5625 38.015625 -41.21875 C 36.765625 -39.957031 34.867188 -39.0625 32.328125 -38.53125 C 31.640625 -38.40625 31.007812 -38.34375 30.4375 -38.34375 C 29.863281 -38.34375 29.179688 -38.40625 28.390625 -38.53125 C 27.597656 -38.65625 26.796875 -38.828125 25.984375 -39.046875 C 24.347656 -39.515625 22.859375 -40.132812 21.515625 -40.90625 C 20.179688 -41.675781 19.039062 -42.28125 18.09375 -42.71875 C 17.144531 -43.15625 16.296875 -43.488281 15.546875 -43.71875 C 14.316406 -44.125 12.929688 -44.328125 11.390625 -44.328125 C 9.859375 -44.328125 8.378906 -44.085938 6.953125 -43.609375 C 5.535156 -43.128906 4.285156 -42.460938 3.203125 -41.609375 C 0.878906 -39.734375 -0.28125 -37.4375 -0.28125 -34.71875 C -0.28125 -32.4375 0.472656 -30.5625 1.984375 -29.09375 C 3.515625 -27.601562 5.53125 -26.859375 8.03125 -26.859375 C 10.394531 -26.859375 12.476562 -27.550781 14.28125 -28.9375 C 16.257812 -30.425781 17.25 -32.3125 17.25 -34.59375 C 17.25 -35.445312 16.960938 -36.1875 16.390625 -36.8125 Z M 16.390625 -36.8125 "/></g></g></g><g fill="#737373" fill-opacity="1"><g transform="translate(168.147519, 172.908958)"><g><path d="M 10.15625 -21.8125 C 7.28125 -21.8125 5.84375 -20.070312 5.84375 -16.59375 C 5.84375 -15.6875 5.957031 -14.703125 6.1875 -13.640625 C 7.226562 -14.546875 8.09375 -15.335938 8.78125 -16.015625 C 9.46875 -16.703125 10.179688 -17.53125 10.921875 -18.5 C 12.359375 -20.40625 13.078125 -22.578125 13.078125 -25.015625 C 13.398438 -24.941406 13.671875 -24.757812 13.890625 -24.46875 C 14.117188 -24.175781 14.234375 -23.773438 14.234375 -23.265625 C 14.234375 -22.753906 14.148438 -22.1875 13.984375 -21.5625 C 13.816406 -20.9375 13.640625 -20.390625 13.453125 -19.921875 C 13.273438 -19.460938 12.945312 -18.914062 12.46875 -18.28125 C 12 -17.644531 11.644531 -17.175781 11.40625 -16.875 C 11.175781 -16.570312 10.710938 -16.082031 10.015625 -15.40625 C 8.347656 -13.832031 7.410156 -12.972656 7.203125 -12.828125 C 6.992188 -12.691406 6.863281 -12.597656 6.8125 -12.546875 C 6.769531 -12.503906 6.722656 -12.46875 6.671875 -12.4375 C 6.628906 -12.40625 6.585938 -12.363281 6.546875 -12.3125 C 7.515625 -8.769531 9.207031 -5.617188 11.625 -2.859375 C 12.757812 -4.171875 13.546875 -5.742188 13.984375 -7.578125 C 14.265625 -8.648438 14.40625 -9.566406 14.40625 -10.328125 C 14.40625 -11.097656 14.332031 -11.75 14.1875 -12.28125 C 13.863281 -13.582031 13.238281 -14.234375 12.3125 -14.234375 C 12.457031 -14.710938 12.851562 -14.953125 13.5 -14.953125 C 14.40625 -14.953125 15.007812 -14.210938 15.3125 -12.734375 C 15.425781 -12.203125 15.484375 -11.507812 15.484375 -10.65625 C 15.484375 -9.8125 15.320312 -8.738281 15 -7.4375 C 14.457031 -5.351562 13.539062 -3.582031 12.25 -2.125 C 14.632812 0.332031 17 1.5625 19.34375 1.5625 C 20.757812 1.5625 21.6875 1.125 22.125 0.25 C 22.351562 -0.238281 22.34375 -0.554688 22.09375 -0.703125 C 22.070312 -0.722656 22.035156 -0.734375 21.984375 -0.734375 C 21.984375 -0.867188 22.050781 -1.019531 22.1875 -1.1875 C 22.394531 -1.4375 22.675781 -1.5625 23.03125 -1.5625 C 23.5625 -1.5625 23.828125 -1.203125 23.828125 -0.484375 C 23.828125 0.234375 23.363281 0.914062 22.4375 1.5625 C 21.488281 2.21875 20.28125 2.546875 18.8125 2.546875 C 16.175781 2.546875 13.554688 1.382812 10.953125 -0.9375 C 9.285156 0.332031 7.492188 0.96875 5.578125 0.96875 C 3.671875 0.96875 2.09375 0.53125 0.84375 -0.34375 C -0.394531 -1.226562 -1.015625 -2.421875 -1.015625 -3.921875 C -1.015625 -5.429688 -0.585938 -6.773438 0.265625 -7.953125 C 1.128906 -9.140625 2.410156 -10.46875 4.109375 -11.9375 C 3.640625 -13.507812 3.40625 -14.914062 3.40625 -16.15625 C 3.40625 -17.394531 3.578125 -18.5 3.921875 -19.46875 C 4.273438 -20.445312 4.90625 -21.226562 5.8125 -21.8125 C 6.71875 -22.394531 7.851562 -22.6875 9.21875 -22.6875 C 9.539062 -22.6875 9.753906 -22.59375 9.859375 -22.40625 C 9.960938 -22.21875 10.0625 -22.019531 10.15625 -21.8125 Z M 5.359375 0.03125 C 7.191406 0.03125 8.828125 -0.5 10.265625 -1.5625 C 7.785156 -4.039062 5.894531 -7.035156 4.59375 -10.546875 C 2.039062 -8.203125 0.765625 -5.960938 0.765625 -3.828125 C 0.765625 -2.617188 1.21875 -1.671875 2.125 -0.984375 C 3.03125 -0.304688 4.109375 0.03125 5.359375 0.03125 Z M 5.359375 0.03125 "/></g></g></g><g fill="#737373" fill-opacity="1"><g transform="translate(114.364333, 162.411311)"><g><path d="M 9.15625 -2.140625 C 5.78125 -0.671875 2.085938 0.0625 -1.921875 0.0625 C -5.335938 0.0625 -7.546875 -0.488281 -8.546875 -1.59375 C -8.828125 -1.914062 -8.96875 -2.28125 -8.96875 -2.6875 C -8.96875 -3.09375 -8.796875 -3.5 -8.453125 -3.90625 C -8.109375 -4.3125 -7.617188 -4.648438 -6.984375 -4.921875 C -5.703125 -5.523438 -3.828125 -5.828125 -1.359375 -5.828125 C 1.109375 -5.828125 4.453125 -5.078125 8.671875 -3.578125 C 11.703125 -5.566406 15.414062 -9.554688 19.8125 -15.546875 C 15.457031 -15.679688 11.90625 -16.644531 9.15625 -18.4375 C 6.46875 -20.207031 5.125 -22.488281 5.125 -25.28125 C 5.125 -28.082031 6.40625 -30.664062 8.96875 -33.03125 C 11.5625 -35.4375 14.472656 -36.640625 17.703125 -36.640625 C 18.171875 -36.640625 18.40625 -36.515625 18.40625 -36.265625 C 18.40625 -36.066406 17.816406 -35.910156 16.640625 -35.796875 C 15.460938 -35.679688 14.257812 -35.300781 13.03125 -34.65625 C 11.8125 -34.019531 10.796875 -33.242188 9.984375 -32.328125 C 8.335938 -30.472656 7.515625 -28.550781 7.515625 -26.5625 C 7.515625 -24.582031 7.816406 -22.992188 8.421875 -21.796875 C 9.035156 -20.597656 9.910156 -19.601562 11.046875 -18.8125 C 13.265625 -17.300781 16.410156 -16.523438 20.484375 -16.484375 L 24.84375 -22.78125 C 30.132812 -30.675781 35 -36.351562 39.4375 -39.8125 C 43.757812 -43.164062 48.25 -44.84375 52.90625 -44.84375 C 55.382812 -44.84375 57.023438 -44.082031 57.828125 -42.5625 C 58.085938 -42.070312 58.21875 -41.398438 58.21875 -40.546875 C 58.21875 -39.691406 57.929688 -38.640625 57.359375 -37.390625 C 56.796875 -36.148438 56.007812 -34.878906 55 -33.578125 C 53.988281 -32.273438 52.785156 -30.972656 51.390625 -29.671875 C 50.003906 -28.367188 48.488281 -27.109375 46.84375 -25.890625 C 45.207031 -24.671875 43.46875 -23.515625 41.625 -22.421875 C 39.78125 -21.335938 37.894531 -20.347656 35.96875 -19.453125 C 31.9375 -17.597656 28.148438 -16.40625 24.609375 -15.875 C 19.921875 -9.601562 15.257812 -5.257812 10.625 -2.84375 C 14.507812 -1.457031 19.148438 -0.765625 24.546875 -0.765625 C 29.328125 -0.765625 32.816406 -1.863281 35.015625 -4.0625 C 35.335938 -4.382812 35.539062 -4.445312 35.625 -4.25 C 35.769531 -3.914062 35.609375 -3.515625 35.140625 -3.046875 C 32.210938 -0.484375 28.785156 0.796875 24.859375 0.796875 C 20.941406 0.796875 15.707031 -0.179688 9.15625 -2.140625 Z M 25.375 -16.90625 C 29.851562 -17.664062 34.601562 -19.5 39.625 -22.40625 C 44.226562 -25.050781 48.097656 -28.125 51.234375 -31.625 C 54.460938 -35.1875 56.078125 -38.363281 56.078125 -41.15625 C 56.078125 -42.394531 55.394531 -43.289062 54.03125 -43.84375 C 53.625 -44.019531 53.1875 -44.109375 52.71875 -44.109375 C 45.925781 -44.109375 39.300781 -38.796875 32.84375 -28.171875 L 29 -22.140625 C 27.78125 -20.265625 26.570312 -18.519531 25.375 -16.90625 Z M -1.53125 -4.1875 C -5.882812 -4.1875 -8.0625 -3.65625 -8.0625 -2.59375 C -8.0625 -1.863281 -6.960938 -1.296875 -4.765625 -0.890625 C -4.066406 -0.765625 -3.035156 -0.703125 -1.671875 -0.703125 C 1.785156 -0.703125 4.753906 -1.375 7.234375 -2.71875 C 3.523438 -3.695312 0.601562 -4.1875 -1.53125 -4.1875 Z M -1.53125 -4.1875 "/></g></g></g><g fill="#737373" fill-opacity="1"><g transform="translate(158.537219, 213.414142)"><g><path d="M 0.515625 -0.09375 L 0.515625 -0.921875 C 0.671875 -1.066406 0.910156 -1.273438 1.234375 -1.546875 C 1.554688 -1.828125 1.800781 -2.039062 1.96875 -2.1875 C 2.132812 -2.332031 2.34375 -2.523438 2.59375 -2.765625 C 2.851562 -3.003906 3.050781 -3.207031 3.1875 -3.375 C 3.332031 -3.539062 3.476562 -3.734375 3.625 -3.953125 C 3.894531 -4.335938 4.03125 -4.722656 4.03125 -5.109375 C 4.03125 -5.929688 3.632812 -6.34375 2.84375 -6.34375 C 2.457031 -6.34375 2.15625 -6.21875 1.9375 -5.96875 C 1.71875 -5.71875 1.601562 -5.382812 1.59375 -4.96875 L 0.5 -4.96875 C 0.519531 -5.71875 0.742188 -6.296875 1.171875 -6.703125 C 1.609375 -7.109375 2.175781 -7.3125 2.875 -7.3125 C 3.570312 -7.3125 4.125 -7.113281 4.53125 -6.71875 C 4.945312 -6.320312 5.15625 -5.800781 5.15625 -5.15625 C 5.15625 -4.675781 5.023438 -4.21875 4.765625 -3.78125 C 4.628906 -3.550781 4.492188 -3.347656 4.359375 -3.171875 C 4.234375 -2.992188 4.054688 -2.789062 3.828125 -2.5625 C 3.609375 -2.34375 3.429688 -2.171875 3.296875 -2.046875 C 3.160156 -1.921875 2.960938 -1.742188 2.703125 -1.515625 C 2.453125 -1.285156 2.28125 -1.128906 2.1875 -1.046875 L 5.359375 -1.046875 L 5.359375 -0.09375 Z M 0.515625 -0.09375 "/></g></g></g><g fill="#737373" fill-opacity="1"><g transform="translate(164.284717, 213.414142)"><g><path d="M 1.859375 -5.078125 C 1.859375 -4.660156 1.972656 -4.320312 2.203125 -4.0625 C 2.441406 -3.800781 2.78125 -3.671875 3.21875 -3.671875 C 3.65625 -3.671875 3.988281 -3.796875 4.21875 -4.046875 C 4.445312 -4.296875 4.5625 -4.632812 4.5625 -5.0625 C 4.5625 -5.5 4.441406 -5.84375 4.203125 -6.09375 C 3.960938 -6.351562 3.628906 -6.484375 3.203125 -6.484375 C 2.785156 -6.484375 2.457031 -6.351562 2.21875 -6.09375 C 1.976562 -5.832031 1.859375 -5.492188 1.859375 -5.078125 Z M 3.328125 -0.953125 C 3.796875 -0.953125 4.140625 -1.140625 4.359375 -1.515625 C 4.578125 -1.890625 4.6875 -2.523438 4.6875 -3.421875 C 4.53125 -3.191406 4.304688 -3.015625 4.015625 -2.890625 C 3.734375 -2.773438 3.421875 -2.71875 3.078125 -2.71875 C 2.410156 -2.71875 1.859375 -2.914062 1.421875 -3.3125 C 0.984375 -3.71875 0.765625 -4.285156 0.765625 -5.015625 C 0.765625 -5.753906 0.976562 -6.34375 1.40625 -6.78125 C 1.832031 -7.21875 2.425781 -7.4375 3.1875 -7.4375 C 4.082031 -7.4375 4.722656 -7.132812 5.109375 -6.53125 C 5.492188 -5.925781 5.6875 -4.988281 5.6875 -3.71875 C 5.6875 -2.457031 5.507812 -1.523438 5.15625 -0.921875 C 4.800781 -0.316406 4.171875 -0.015625 3.265625 -0.015625 C 2.546875 -0.015625 1.992188 -0.195312 1.609375 -0.5625 C 1.222656 -0.9375 1.007812 -1.40625 0.96875 -1.96875 L 2.015625 -1.96875 C 2.148438 -1.289062 2.585938 -0.953125 3.328125 -0.953125 Z M 3.328125 -0.953125 "/></g></g></g><g fill="#737373" fill-opacity="1"><g transform="translate(170.609957, 213.414142)"><g><path d="M 0.609375 1.75 L 3.3125 -9.40625 L 4.4375 -9.40625 L 1.71875 1.75 Z M 0.609375 1.75 "/></g></g></g><g fill="#737373" fill-opacity="1"><g transform="translate(175.729918, 213.414142)"><g><path d="M 1.9375 -6.984375 C 2.28125 -7.171875 2.695312 -7.265625 3.1875 -7.265625 C 3.675781 -7.265625 4.09375 -7.171875 4.4375 -6.984375 C 4.789062 -6.804688 5.0625 -6.546875 5.25 -6.203125 C 5.4375 -5.867188 5.570312 -5.492188 5.65625 -5.078125 C 5.738281 -4.660156 5.78125 -4.179688 5.78125 -3.640625 C 5.78125 -3.109375 5.738281 -2.632812 5.65625 -2.21875 C 5.570312 -1.800781 5.4375 -1.421875 5.25 -1.078125 C 5.0625 -0.734375 4.789062 -0.46875 4.4375 -0.28125 C 4.09375 -0.101562 3.675781 -0.015625 3.1875 -0.015625 C 2.695312 -0.015625 2.28125 -0.101562 1.9375 -0.28125 C 1.59375 -0.46875 1.320312 -0.734375 1.125 -1.078125 C 0.9375 -1.421875 0.800781 -1.800781 0.71875 -2.21875 C 0.632812 -2.632812 0.59375 -3.109375 0.59375 -3.640625 C 0.59375 -4.179688 0.632812 -4.660156 0.71875 -5.078125 C 0.800781 -5.492188 0.9375 -5.867188 1.125 -6.203125 C 1.320312 -6.546875 1.59375 -6.804688 1.9375 -6.984375 Z M 3.1875 -6.234375 C 2.875 -6.234375 2.613281 -6.164062 2.40625 -6.03125 C 2.195312 -5.894531 2.046875 -5.691406 1.953125 -5.421875 C 1.796875 -4.960938 1.71875 -4.375 1.71875 -3.65625 C 1.71875 -2.914062 1.796875 -2.316406 1.953125 -1.859375 C 2.140625 -1.328125 2.550781 -1.0625 3.1875 -1.0625 C 3.820312 -1.0625 4.234375 -1.328125 4.421875 -1.859375 C 4.585938 -2.316406 4.671875 -2.914062 4.671875 -3.65625 C 4.671875 -4.375 4.585938 -4.960938 4.421875 -5.421875 C 4.234375 -5.960938 3.820312 -6.234375 3.1875 -6.234375 Z M 3.1875 -6.234375 "/></g></g></g><g fill="#737373" fill-opacity="1"><g transform="translate(182.11492, 213.414142)"><g><path d="M 0.40625 -7.234375 L 5.203125 -7.234375 L 5.203125 -6.390625 L 2.4375 0 L 1.1875 0 L 4.09375 -6.296875 L 0.40625 -6.296875 Z M 0.40625 -7.234375 "/></g></g></g><g fill="#737373" fill-opacity="1"><g transform="translate(187.69309, 213.414142)"><g><path d="M 0.609375 1.75 L 3.3125 -9.40625 L 4.4375 -9.40625 L 1.71875 1.75 Z M 0.609375 1.75 "/></g></g></g><g fill="#737373" fill-opacity="1"><g transform="translate(192.81305, 213.414142)"><g><path d="M 0.515625 -0.09375 L 0.515625 -0.921875 C 0.671875 -1.066406 0.910156 -1.273438 1.234375 -1.546875 C 1.554688 -1.828125 1.800781 -2.039062 1.96875 -2.1875 C 2.132812 -2.332031 2.34375 -2.523438 2.59375 -2.765625 C 2.851562 -3.003906 3.050781 -3.207031 3.1875 -3.375 C 3.332031 -3.539062 3.476562 -3.734375 3.625 -3.953125 C 3.894531 -4.335938 4.03125 -4.722656 4.03125 -5.109375 C 4.03125 -5.929688 3.632812 -6.34375 2.84375 -6.34375 C 2.457031 -6.34375 2.15625 -6.21875 1.9375 -5.96875 C 1.71875 -5.71875 1.601562 -5.382812 1.59375 -4.96875 L 0.5 -4.96875 C 0.519531 -5.71875 0.742188 -6.296875 1.171875 -6.703125 C 1.609375 -7.109375 2.175781 -7.3125 2.875 -7.3125 C 3.570312 -7.3125 4.125 -7.113281 4.53125 -6.71875 C 4.945312 -6.320312 5.15625 -5.800781 5.15625 -5.15625 C 5.15625 -4.675781 5.023438 -4.21875 4.765625 -3.78125 C 4.628906 -3.550781 4.492188 -3.347656 4.359375 -3.171875 C 4.234375 -2.992188 4.054688 -2.789062 3.828125 -2.5625 C 3.609375 -2.34375 3.429688 -2.171875 3.296875 -2.046875 C 3.160156 -1.921875 2.960938 -1.742188 2.703125 -1.515625 C 2.453125 -1.285156 2.28125 -1.128906 2.1875 -1.046875 L 5.359375 -1.046875 L 5.359375 -0.09375 Z M 0.515625 -0.09375 "/></g></g></g><g fill="#737373" fill-opacity="1"><g transform="translate(198.560548, 213.414142)"><g><path d="M 1.9375 -6.984375 C 2.28125 -7.171875 2.695312 -7.265625 3.1875 -7.265625 C 3.675781 -7.265625 4.09375 -7.171875 4.4375 -6.984375 C 4.789062 -6.804688 5.0625 -6.546875 5.25 -6.203125 C 5.4375 -5.867188 5.570312 -5.492188 5.65625 -5.078125 C 5.738281 -4.660156 5.78125 -4.179688 5.78125 -3.640625 C 5.78125 -3.109375 5.738281 -2.632812 5.65625 -2.21875 C 5.570312 -1.800781 5.4375 -1.421875 5.25 -1.078125 C 5.0625 -0.734375 4.789062 -0.46875 4.4375 -0.28125 C 4.09375 -0.101562 3.675781 -0.015625 3.1875 -0.015625 C 2.695312 -0.015625 2.28125 -0.101562 1.9375 -0.28125 C 1.59375 -0.46875 1.320312 -0.734375 1.125 -1.078125 C 0.9375 -1.421875 0.800781 -1.800781 0.71875 -2.21875 C 0.632812 -2.632812 0.59375 -3.109375 0.59375 -3.640625 C 0.59375 -4.179688 0.632812 -4.660156 0.71875 -5.078125 C 0.800781 -5.492188 0.9375 -5.867188 1.125 -6.203125 C 1.320312 -6.546875 1.59375 -6.804688 1.9375 -6.984375 Z M 3.1875 -6.234375 C 2.875 -6.234375 2.613281 -6.164062 2.40625 -6.03125 C 2.195312 -5.894531 2.046875 -5.691406 1.953125 -5.421875 C 1.796875 -4.960938 1.71875 -4.375 1.71875 -3.65625 C 1.71875 -2.914062 1.796875 -2.316406 1.953125 -1.859375 C 2.140625 -1.328125 2.550781 -1.0625 3.1875 -1.0625 C 3.820312 -1.0625 4.234375 -1.328125 4.421875 -1.859375 C 4.585938 -2.316406 4.671875 -2.914062 4.671875 -3.65625 C 4.671875 -4.375 4.585938 -4.960938 4.421875 -5.421875 C 4.234375 -5.960938 3.820312 -6.234375 3.1875 -6.234375 Z M 3.1875 -6.234375 "/></g></g></g><g fill="#737373" fill-opacity="1"><g transform="translate(204.945549, 213.414142)"><g><path d="M 0.515625 -0.09375 L 0.515625 -0.921875 C 0.671875 -1.066406 0.910156 -1.273438 1.234375 -1.546875 C 1.554688 -1.828125 1.800781 -2.039062 1.96875 -2.1875 C 2.132812 -2.332031 2.34375 -2.523438 2.59375 -2.765625 C 2.851562 -3.003906 3.050781 -3.207031 3.1875 -3.375 C 3.332031 -3.539062 3.476562 -3.734375 3.625 -3.953125 C 3.894531 -4.335938 4.03125 -4.722656 4.03125 -5.109375 C 4.03125 -5.929688 3.632812 -6.34375 2.84375 -6.34375 C 2.457031 -6.34375 2.15625 -6.21875 1.9375 -5.96875 C 1.71875 -5.71875 1.601562 -5.382812 1.59375 -4.96875 L 0.5 -4.96875 C 0.519531 -5.71875 0.742188 -6.296875 1.171875 -6.703125 C 1.609375 -7.109375 2.175781 -7.3125 2.875 -7.3125 C 3.570312 -7.3125 4.125 -7.113281 4.53125 -6.71875 C 4.945312 -6.320312 5.15625 -5.800781 5.15625 -5.15625 C 5.15625 -4.675781 5.023438 -4.21875 4.765625 -3.78125 C 4.628906 -3.550781 4.492188 -3.347656 4.359375 -3.171875 C 4.234375 -2.992188 4.054688 -2.789062 3.828125 -2.5625 C 3.609375 -2.34375 3.429688 -2.171875 3.296875 -2.046875 C 3.160156 -1.921875 2.960938 -1.742188 2.703125 -1.515625 C 2.453125 -1.285156 2.28125 -1.128906 2.1875 -1.046875 L 5.359375 -1.046875 L 5.359375 -0.09375 Z M 0.515625 -0.09375 "/></g></g></g><g fill="#737373" fill-opacity="1"><g transform="translate(210.693047, 213.414142)"><g><path d="M 0.515625 -0.09375 L 0.515625 -0.921875 C 0.671875 -1.066406 0.910156 -1.273438 1.234375 -1.546875 C 1.554688 -1.828125 1.800781 -2.039062 1.96875 -2.1875 C 2.132812 -2.332031 2.34375 -2.523438 2.59375 -2.765625 C 2.851562 -3.003906 3.050781 -3.207031 3.1875 -3.375 C 3.332031 -3.539062 3.476562 -3.734375 3.625 -3.953125 C 3.894531 -4.335938 4.03125 -4.722656 4.03125 -5.109375 C 4.03125 -5.929688 3.632812 -6.34375 2.84375 -6.34375 C 2.457031 -6.34375 2.15625 -6.21875 1.9375 -5.96875 C 1.71875 -5.71875 1.601562 -5.382812 1.59375 -4.96875 L 0.5 -4.96875 C 0.519531 -5.71875 0.742188 -6.296875 1.171875 -6.703125 C 1.609375 -7.109375 2.175781 -7.3125 2.875 -7.3125 C 3.570312 -7.3125 4.125 -7.113281 4.53125 -6.71875 C 4.945312 -6.320312 5.15625 -5.800781 5.15625 -5.15625 C 5.15625 -4.675781 5.023438 -4.21875 4.765625 -3.78125 C 4.628906 -3.550781 4.492188 -3.347656 4.359375 -3.171875 C 4.234375 -2.992188 4.054688 -2.789062 3.828125 -2.5625 C 3.609375 -2.34375 3.429688 -2.171875 3.296875 -2.046875 C 3.160156 -1.921875 2.960938 -1.742188 2.703125 -1.515625 C 2.453125 -1.285156 2.28125 -1.128906 2.1875 -1.046875 L 5.359375 -1.046875 L 5.359375 -0.09375 Z M 0.515625 -0.09375 "/></g></g></g></svg>